<?xml version="1.0" encoding="UTF-8"?>
<svg version="1.1" xmlns="http://www.w3.org/2000/svg" width="36" height="35">
<path d="M0 0 C1.40765625 -0.00386719 1.40765625 -0.00386719 2.84375 -0.0078125 C5.2214263 0.11107132 7.22683096 0.44948278 9.5 1.125 C9.5 1.785 9.5 2.445 9.5 3.125 C10.098125 3.33125 10.69625 3.5375 11.3125 3.75 C14.54472526 5.78168445 15.23259475 7.51289504 16.5 11.125 C17.14625985 16.29507882 17.31205908 21.31338183 14.9375 26.0625 C11.40405873 30.50195185 8.41452032 32.66389679 2.8828125 33.5390625 C-2.94144512 33.84560237 -7.17226929 33.08603085 -11.90625 29.59375 C-16.00164403 25.81956335 -16.69533852 22.05174377 -16.9375 16.6875 C-16.79262712 11.37790902 -15.70833981 8.34167518 -12.5 4.125 C-11.51 3.795 -10.52 3.465 -9.5 3.125 C-9.5 2.465 -9.5 1.805 -9.5 1.125 C-6.27599427 0.16692283 -3.35714324 -0.00922292 0 0 Z " fill="#0B8C7F" transform="translate(18.5,0.875)"/>
<path d="M0 0 C3.23745972 3.02859135 4.79844164 4.92494012 5.23828125 9.453125 C5.41012241 15.9288234 5.08574337 19.86663013 1 25 C-3.97273887 28.95789421 -8.02154179 29.61514896 -14.33203125 29.40625 C-18.29982337 28.80207668 -20.74914075 27.31172213 -24 25 C-19.81538462 20.07692308 -19.81538462 20.07692308 -15.6875 19.6875 C-14.800625 19.790625 -13.91375 19.89375 -13 20 C-13 20.66 -13 21.32 -13 22 C-12.34 22 -11.68 22 -11 22 C-11 21.34 -11 20.68 -11 20 C-8.36 20 -5.72 20 -3 20 C-3.11859375 18.97519531 -3.2371875 17.95039063 -3.359375 16.89453125 C-3.49073998 15.53396535 -3.62088402 14.17328117 -3.75 12.8125 C-3.87181641 11.80219727 -3.87181641 11.80219727 -3.99609375 10.77148438 C-4.33137457 6.95300833 -4.16393463 5.24687007 -2.015625 2.01171875 C-1.35046875 1.34785156 -0.6853125 0.68398437 0 0 Z " fill="#708906" transform="translate(30,5)"/>
<path d="M0 0 C5.94 0 11.88 0 18 0 C18 4.62 18 9.24 18 14 C15.36 14 12.72 14 10 14 C10 14.66 10 15.32 10 16 C9.34 16 8.68 16 8 16 C8 15.34 8 14.68 8 14 C5.36 14 2.72 14 0 14 C0 9.38 0 4.76 0 0 Z " fill="#CCE5CF" transform="translate(9,11)"/>
<path d="M0 0 C0 0.66 0 1.32 0 2 C0.66 2 1.32 2 2 2 C1.43173786 5.29592043 0.5921075 6.88077697 -2 9 C-4.97812002 9.86656163 -7.90308569 10.11739206 -11 10 C-13.5625 8.5625 -13.5625 8.5625 -15 7 C-10.26483794 1.19942648 -7.57578316 -0.93035934 0 0 Z " fill="#028A69" transform="translate(28,2)"/>
<path d="M0 0 C-0.38119768 5.62266579 -0.73560664 8.96611439 -5 13 C-8.8038349 15.34704706 -11.52586103 16.39477697 -16 16 C-2.72340426 0 -2.72340426 0 0 0 Z " fill="#938100" transform="translate(35,18)"/>
<path d="M0 0 C-4.62 4.62 -9.24 9.24 -14 14 C-15.13482428 9.46070288 -15.13482428 9.46070288 -13.25 6.3125 C-12.90453125 5.71050781 -12.5590625 5.10851562 -12.203125 4.48828125 C-11 3 -11 3 -8 2 C-8 1.34 -8 0.68 -8 0 C-4.63458162 -1.08174162 -3.70152678 -0.92538169 0 0 Z " fill="#01858E" transform="translate(17,2)"/>
<path d="M0 0 C1.98 0 3.96 0 6 0 C6 3.3 6 6.6 6 10 C4.02 10 2.04 10 0 10 C0 6.7 0 3.4 0 0 Z " fill="#3E8A00" transform="translate(19,13)"/>
<path d="M0 0 C1.98 0 3.96 0 6 0 C6 3.3 6 6.6 6 10 C4.02 10 2.04 10 0 10 C0 6.7 0 3.4 0 0 Z " fill="#018B4C" transform="translate(11,13)"/>
<path d="M0 0 C0.6875 2.3125 0.6875 2.3125 1 5 C-0.125 6.875 -0.125 6.875 -2 8 C-5.01071639 7.84946418 -6.52068815 7.41319987 -8.8125 5.4375 C-9.204375 4.963125 -9.59625 4.48875 -10 4 C-6.58908673 0.88145073 -4.68377325 -0.53528837 0 0 Z " fill="#3F8A00" transform="translate(16,25)"/>
<path d="M0 0 C2.0625 1.6875 2.0625 1.6875 4 4 C4.0625 6.5 4.0625 6.5 3 9 C0.4375 11.3125 0.4375 11.3125 -2 13 C-3.76165803 7.80310881 -3.76165803 7.80310881 -4 5 C-2.125 2 -2.125 2 0 0 Z " fill="#4E8900" transform="translate(30,5)"/>
<path d="M0 0 C0.33 0.66 0.66 1.32 1 2 C1.66 2 2.32 2 3 2 C2.42655063 4.86724686 2.1385485 5.8614515 0 8 C-3.625 8.125 -3.625 8.125 -7 8 C-5.50902342 4.2047869 -3.24299151 2.38957269 0 0 Z " fill="#008B47" transform="translate(27,2)"/>
<path d="M0 0 C2 3.75 2 3.75 2 6 C2.66 6.33 3.32 6.66 4 7 C2.6875 8.5 2.6875 8.5 1 10 C0.01 10 -0.98 10 -2 10 C-2.66 8.35 -3.32 6.7 -4 5 C-2.68 3.35 -1.36 1.7 0 0 Z " fill="#008C3F" transform="translate(7,19)"/>
<path d="M0 0 C0.33 0.66 0.66 1.32 1 2 C-3.33333333 6.33333333 -7.66666667 10.66666667 -12 15 C-12.66 14.67 -13.32 14.34 -14 14 C-9.38 9.38 -4.76 4.76 0 0 Z " fill="#888300" transform="translate(34,18)"/>
<path d="M0 0 C1.32 0.33 2.64 0.66 4 1 C1.03 3.97 -1.94 6.94 -5 10 C-5.33 9.01 -5.66 8.02 -6 7 C-4.1875 4.3125 -4.1875 4.3125 -2 2 C-1.34 2 -0.68 2 0 2 C0 1.34 0 0.68 0 0 Z " fill="#008A9F" transform="translate(9,2)"/>
<path d="M0 0 C-1.35468295 4.87685861 -3.71675909 6.48592381 -8 9 C-8 6 -8 6 -6.7578125 4.39453125 C-5.94957031 3.61142578 -5.94957031 3.61142578 -5.125 2.8125 C-4.59132813 2.28269531 -4.05765625 1.75289062 -3.5078125 1.20703125 C-2 0 -2 0 0 0 Z " fill="#9F7C00" transform="translate(34,24)"/>
<path d="M0 0 C1.98 0 3.96 0 6 0 C4.60667426 3.36720387 3.0210714 4.9859524 0 7 C0 4.69 0 2.38 0 0 Z " fill="#038D0D" transform="translate(19,13)"/>
<path d="M0 0 C1.32 1.32 2.64 2.64 4 4 C2.35 5.32 0.7 6.64 -1 8 C-1.99 7.01 -2.98 6.02 -4 5 C-2.68 3.35 -1.36 1.7 0 0 Z " fill="#129000" transform="translate(30,5)"/>
<path d="M0 0 C0 3.51716303 -0.82445585 4.37121748 -3 7 C-1.02 7 0.96 7 3 7 C3 7.33 3 7.66 3 8 C-1.455 8.495 -1.455 8.495 -6 9 C-6 6 -6 6 -4.6875 4.39453125 C-4.130625 3.87246094 -3.57375 3.35039063 -3 2.8125 C-2.443125 2.28269531 -1.88625 1.75289063 -1.3125 1.20703125 C-0.6628125 0.60955078 -0.6628125 0.60955078 0 0 Z " fill="#0F915A" transform="translate(23,3)"/>
<path d="M0 0 C0.8125 1.6875 0.8125 1.6875 1 4 C-1.4375 6.75 -1.4375 6.75 -4 9 C-4.8125 7.3125 -4.8125 7.3125 -5 5 C-2.5625 2.25 -2.5625 2.25 0 0 Z " fill="#008869" transform="translate(7,15)"/>
<path d="M0 0 C0.66 0 1.32 0 2 0 C2 1.98 2 3.96 2 6 C0.02 6 -1.96 6 -4 6 C-3.67 5.01 -3.34 4.02 -3 3 C-2.01 3 -1.02 3 0 3 C0 2.01 0 1.02 0 0 Z " fill="#008C1C" transform="translate(15,17)"/>
<path d="M0 0 C0.33 0.66 0.66 1.32 1 2 C1.66 2 2.32 2 3 2 C2.42655063 4.86724686 2.1385485 5.8614515 0 8 C-2.125 7.625 -2.125 7.625 -4 7 C-2.68 6.34 -1.36 5.68 0 5 C0 3.35 0 1.7 0 0 Z " fill="#009627" transform="translate(27,2)"/>
<path d="M0 0 C0.99 0.33 1.98 0.66 3 1 C0.03 3.475 0.03 3.475 -3 6 C-3.66 5.34 -4.32 4.68 -5 4 C-2.6875 1.9375 -2.6875 1.9375 0 0 Z " fill="#028C00" transform="translate(11,25)"/>
</svg>
